<svg xmlns="http://www.w3.org/2000/svg" xmlns:xlink="http://www.w3.org/1999/xlink" width="100" height="100" viewBox="0 0 100 100">
  <defs>
    <clipPath id="clip-path">
      <rect id="Rectangle_2513" data-name="Rectangle 2513" width="100" height="100" transform="translate(21471 -14441)" fill="#fff" stroke="#707070" stroke-width="1"/>
    </clipPath>
  </defs>
  <g id="alarm_white" transform="translate(-21471 14441)" clip-path="url(#clip-path)">
    <g id="alarm" transform="translate(21487.469 -14435.78)">
      <path id="Path_12335" data-name="Path 12335" d="M140.352,169.376V143.79a23.79,23.79,0,1,0-47.58,0v25.586A8.323,8.323,0,0,0,87,177.288v11.283h59.125V177.288A8.323,8.323,0,0,0,140.352,169.376Zm-42.332-6.17H135.1v5.773H98.02Zm18.542-37.959A18.563,18.563,0,0,1,135.1,143.79v14.169H98.02V143.79A18.563,18.563,0,0,1,116.562,125.248Zm24.315,58.075H92.248v-6.035a3.065,3.065,0,0,1,3.061-3.061h42.507a3.065,3.065,0,0,1,3.061,3.061Z" transform="translate(-83.043 -99.009)" fill="#fff"/>
      <path id="Path_12336" data-name="Path 12336" d="M241,0h5.248V12.6H241Z" transform="translate(-210.105)" fill="#fff"/>
      <path id="Path_12337" data-name="Path 12337" d="M0,0H12.6V5.248H0Z" transform="translate(43.686 13.582) rotate(-68.156)" fill="#fff"/>
      <path id="Path_12338" data-name="Path 12338" d="M0,0H12.6V5.248H0Z" transform="matrix(0.674, -0.739, 0.739, 0.674, 54.689, 19.682)" fill="#fff"/>
      <path id="Path_12339" data-name="Path 12339" d="M0,0H5.248V12.6H0Z" transform="translate(13.799 3.81) rotate(-21.844)" fill="#fff"/>
      <path id="Path_12340" data-name="Path 12340" d="M0,0H5.248V12.6H0Z" transform="matrix(0.739, -0.674, 0.674, 0.739, 0, 13.905)" fill="#fff"/>
      <path id="Path_12341" data-name="Path 12341" d="M241,183h5.248v14.227H241Z" transform="translate(-210.105 -150.989)" fill="#fff"/>
      <path id="Path_12342" data-name="Path 12342" d="M241,285h5.248v5.248H241Z" transform="translate(-210.105 -235.146)" fill="#fff"/>
    </g>
  </g>
</svg>
