<svg xmlns="http://www.w3.org/2000/svg" xmlns:xlink="http://www.w3.org/1999/xlink" width="100" height="100" viewBox="0 0 100 100">
  <defs>
    <clipPath id="clip-path">
      <rect id="Rectangle_2515" data-name="Rectangle 2515" width="100" height="100" transform="translate(21799 -14430)" fill="#fff" stroke="#707070" stroke-width="1"/>
    </clipPath>
  </defs>
  <g id="cctv_white" transform="translate(-21799 14430)" clip-path="url(#clip-path)">
    <g id="cctv" transform="translate(21803.789 -14413.907)">
      <g id="Group_5235" data-name="Group 5235" transform="translate(0 0)">
        <g id="Group_5234" data-name="Group 5234">
          <path id="Path_12343" data-name="Path 12343" d="M.95,94.356,52.037,65.138a9.288,9.288,0,0,1,11.932,2.677l9.9,14.148A8.227,8.227,0,0,1,71.242,93.8l-10.774,6.222,1.946,2.6a8.005,8.005,0,0,1-.094,9.814l2.868,4.315H79.118v-5.67A1.866,1.866,0,0,1,81,109.212h7.535a1.866,1.866,0,0,1,1.884,1.865v18.854a1.884,1.884,0,0,1-1.884,1.885H81a1.884,1.884,0,0,1-1.884-1.885v-1.882H65.188a11.275,11.275,0,0,1-9.4-5.035L52.7,118.378a8.531,8.531,0,0,1-1.807.246,8.625,8.625,0,0,1-7.362-4.172L41.457,111l-16.032,9.258a1.882,1.882,0,0,1-2.627-.79l-1.395-2.8c-.229.017-.449.067-.682.067a13.208,13.208,0,0,1-13.186-13.2,12.17,12.17,0,0,1,.293-2.464l-6.787-3.4A1.886,1.886,0,0,1,.95,94.356Zm81.935,33.693h3.768v-15.07H82.885v15.07Zm-23.966-7.117a7.518,7.518,0,0,0,6.269,3.355H79.118V120.52H65.188a3.752,3.752,0,0,1-3.135-1.678l-2.609-3.914-3.235,1.94Zm-12.162-8.4a4.955,4.955,0,0,0,6.61,1.652l4.777-2.866A4.4,4.4,0,0,0,59.4,104.9l-2.219-2.958-12.461,7.19Zm-21.482,3.477L69.36,90.569a4.448,4.448,0,0,0,1.418-6.4l-4.73-6.755L19.433,104.306Zm-5.781-3.145-3.943-7.9-4.185-2.092c-.021.231-.063.47-.063.694A9.4,9.4,0,0,0,19.494,112.86Zm-2.6-11.438L63.88,74.314l-3-4.282a5.3,5.3,0,0,0-6.976-1.564L5.875,95.915Z" transform="translate(0 -64.002)" fill="#fff"/>
          <ellipse id="Ellipse_422" data-name="Ellipse 422" cx="1.884" cy="1.884" rx="1.884" ry="1.884" transform="translate(26.373 41.442)" fill="#fff"/>
        </g>
      </g>
    </g>
  </g>
</svg>
