<svg xmlns="http://www.w3.org/2000/svg" xmlns:xlink="http://www.w3.org/1999/xlink" width="100" height="100" viewBox="0 0 100 100">
  <defs>
    <clipPath id="clip-path">
      <rect id="Rectangle_2518" data-name="Rectangle 2518" width="100" height="100" transform="translate(21844 -14294)" fill="#fff" stroke="#707070" stroke-width="1"/>
    </clipPath>
  </defs>
  <g id="door_white" transform="translate(-21844 14294)" clip-path="url(#clip-path)">
    <g id="windows" transform="translate(21848.895 -14290.056)">
      <g id="Group_5259" data-name="Group 5259" transform="translate(0 7.115)">
        <g id="Group_5258" data-name="Group 5258">
          <path id="Path_12363" data-name="Path 12363" d="M92.909,115.224h-.935V83.791a1.313,1.313,0,0,0-2.626,0v31.433H84.859V40.806a1.312,1.312,0,0,0-1.22-1.308l-.043,0-.05,0H17.912l-.047,0-.055,0c-.038,0-.075.008-.112.014l-.035.005a1.289,1.289,0,0,0-.15.038l-.01,0a1.283,1.283,0,0,0-.132.052l-.034.016q-.054.026-.106.058l-.021.012L17.2,39.7a1.333,1.333,0,0,0-.124.09l0,0a1.317,1.317,0,0,0-.1.1l-.03.034q-.036.041-.069.084l-.026.035a1.283,1.283,0,0,0-.075.118l0,.007a1.315,1.315,0,0,0-.066.139l-.01.027c-.014.038-.027.077-.038.117,0,.014-.007.027-.01.041-.009.037-.016.075-.022.113,0,.014,0,.027-.006.041a1.32,1.32,0,0,0-.01.154v74.418H12.111V83.8a1.313,1.313,0,1,0-2.626,0v31.427H8.55a2.929,2.929,0,0,0-2.926,2.926v3.54a2.929,2.929,0,0,0,2.926,2.926h84.36a2.929,2.929,0,0,0,2.926-2.926v-3.54A2.929,2.929,0,0,0,92.909,115.224ZM82.229,42.882v72.342H80.465l-16.511-6.172v-57.5Zm-4.517-.763L62.7,49.243a2.312,2.312,0,0,0-1.368,2.081V109.3a2.33,2.33,0,0,0,1.573,2.163l10.066,3.762H28.488l10.066-3.763a2.329,2.329,0,0,0,1.573-2.163V51.325a2.312,2.312,0,0,0-1.368-2.081L23.742,42.119Zm-58.487.763L37.5,51.553v57.5l-16.511,6.172H19.225ZM92.91,121.99H8.55a.3.3,0,0,1-.3-.3v-3.54a.3.3,0,0,1,.3-.3h84.36a.3.3,0,0,1,.3.3v3.54h0A.3.3,0,0,1,92.91,121.99Z" transform="translate(-5.624 -39.493)" fill="#fff"/>
        </g>
      </g>
      <g id="Group_5261" data-name="Group 5261" transform="translate(3.861)">
        <g id="Group_5260" data-name="Group 5260">
          <path id="Path_12364" data-name="Path 12364" d="M106.149,0h-75.7a3.4,3.4,0,0,0-3.4,3.4V45.1a1.313,1.313,0,0,0,2.626,0V3.4a.772.772,0,0,1,.771-.771h75.7a.772.772,0,0,1,.771.771v41.77a1.313,1.313,0,1,0,2.626,0V3.4A3.4,3.4,0,0,0,106.149,0Z" transform="translate(-27.057)" fill="#fff"/>
        </g>
      </g>
      <g id="Group_5263" data-name="Group 5263" transform="translate(61.607 16.759)">
        <g id="Group_5262" data-name="Group 5262">
          <path id="Path_12365" data-name="Path 12365" d="M358.319,93.03a1.6,1.6,0,0,0-.713.167l-9.167,4.585a1.508,1.508,0,0,0-.845,1.352v22a1.581,1.581,0,0,0,1.594,1.547l9.156.059h.011a1.561,1.561,0,0,0,1.582-1.536V94.6A1.6,1.6,0,0,0,358.319,93.03Zm-1.007,27.079-7.093-.046V99.827l7.093-3.548Z" transform="translate(-347.595 -93.03)" fill="#fff"/>
        </g>
      </g>
      <g id="Group_5265" data-name="Group 5265" transform="translate(61.606 48.325)">
        <g id="Group_5264" data-name="Group 5264">
          <path id="Path_12366" data-name="Path 12366" d="M358.34,268.248l-9.157.092a1.584,1.584,0,0,0-1.589,1.549v23.125a1.512,1.512,0,0,0,.967,1.406l9.166,3.641a1.618,1.618,0,0,0,2.211-1.457v-26.82A1.564,1.564,0,0,0,358.34,268.248Zm-1.028,26.823-7.093-2.818v-21.3l7.093-.072Z" transform="translate(-347.594 -268.248)" fill="#fff"/>
        </g>
      </g>
      <g id="Group_5267" data-name="Group 5267" transform="translate(16.257 48.325)">
        <g id="Group_5266" data-name="Group 5266">
          <path id="Path_12367" data-name="Path 12367" d="M106.618,268.34l-9.173-.092a1.56,1.56,0,0,0-1.58,1.535V296.6a1.618,1.618,0,0,0,2.21,1.457l9.167-3.641a1.511,1.511,0,0,0,.966-1.405V269.889A1.584,1.584,0,0,0,106.618,268.34Zm-1.036,23.913-7.093,2.817V270.884l7.093.071Z" transform="translate(-95.865 -268.248)" fill="#fff"/>
        </g>
      </g>
      <g id="Group_5269" data-name="Group 5269" transform="translate(16.257 16.759)">
        <g id="Group_5268" data-name="Group 5268">
          <path id="Path_12368" data-name="Path 12368" d="M107.363,97.783,98.2,93.2a1.616,1.616,0,0,0-2.331,1.4V121.2a1.561,1.561,0,0,0,1.582,1.536h.011l9.156-.059a1.581,1.581,0,0,0,1.595-1.548v-22A1.509,1.509,0,0,0,107.363,97.783Zm-1.781,22.28-7.093.046V96.28l7.093,3.548Z" transform="translate(-95.864 -93.03)" fill="#fff"/>
        </g>
      </g>
    </g>
  </g>
</svg>
