<svg xmlns="http://www.w3.org/2000/svg" xmlns:xlink="http://www.w3.org/1999/xlink" width="100" height="100" viewBox="0 0 100 100">
  <defs>
    <clipPath id="clip-path">
      <rect id="Rectangle_2519" data-name="Rectangle 2519" width="100" height="100" transform="translate(21094 -14054)" fill="#fff" stroke="#707070" stroke-width="1"/>
    </clipPath>
  </defs>
  <g id="gate" transform="translate(-21094 14054)" clip-path="url(#clip-path)">
    <g id="gate-2" data-name="gate" transform="translate(21099 -14087)">
      <g id="Group_5271" data-name="Group 5271" transform="translate(0 46)">
        <g id="Group_5270" data-name="Group 5270" transform="translate(0 0)">
          <path id="Path_12369" data-name="Path 12369" d="M88.534,60.109h0a8.818,8.818,0,1,0-14.1,0h0a1.764,1.764,0,0,0-1.764,1.764v6.269a50.98,50.98,0,0,0-6.232-3.393V61.873a1.764,1.764,0,0,0-3.527,0V63.29q-.891-.33-1.8-.628-2.193-.72-4.435-1.236V57.751a1.764,1.764,0,1,0-3.527,0v2.986a51.038,51.038,0,0,0-6.231-.6V54.818a1.764,1.764,0,0,0-3.527,0v5.323a51.039,51.039,0,0,0-6.231.6V57.752a1.764,1.764,0,0,0-3.527,0v3.674q-2.239.518-4.434,1.236-.906.3-1.8.628V61.873a1.764,1.764,0,1,0-3.527,0v2.875a51.017,51.017,0,0,0-6.232,3.393V61.873a1.764,1.764,0,0,0-1.764-1.764h0A8.817,8.817,0,1,0,0,54.818a8.77,8.77,0,0,0,1.768,5.291h0A1.764,1.764,0,0,0,0,61.873v56.436a1.764,1.764,0,0,0,1.764,1.764H21.346a1.764,1.764,0,1,0,0-3.527H17.636v-3.527H72.661v3.527H68.952a1.764,1.764,0,1,0,0,3.527H88.534a1.764,1.764,0,0,0,1.764-1.764V61.873A1.764,1.764,0,0,0,88.534,60.109ZM14.109,116.545H3.527V63.636H7.055v7.389a1.764,1.764,0,0,0,3.527,0V63.636h3.527ZM8.818,60.109a5.291,5.291,0,1,1,5.291-5.291A5.3,5.3,0,0,1,8.818,60.109Zm15.05,49.381H17.636v-37.1a47.974,47.974,0,0,1,6.232-3.742Zm9.759,0H27.4V67.055a47.006,47.006,0,0,1,6.231-2.017v44.453Zm9.759,0H37.154V64.3a47.874,47.874,0,0,1,6.231-.635Zm9.758,0H46.912V63.669a47.875,47.875,0,0,1,6.231.635Zm9.758,0H56.671V65.038A46.981,46.981,0,0,1,62.9,67.055Zm9.759,0H66.429V68.647a47.954,47.954,0,0,1,6.232,3.742Zm14.109,7.055H76.188V63.636h3.527v7.389a1.764,1.764,0,0,0,3.527,0V63.636H86.77ZM81.479,60.109a5.291,5.291,0,1,1,5.291-5.291A5.3,5.3,0,0,1,81.479,60.109Z" transform="translate(0 -46)" fill="#78b4f2"/>
          <path id="Path_12370" data-name="Path 12370" d="M141.569,446h-.042a1.764,1.764,0,1,0,0,3.527h.042a1.764,1.764,0,1,0,0-3.527Z" transform="translate(-115.115 -375.454)" fill="#78b4f2"/>
          <path id="Path_12371" data-name="Path 12371" d="M353.8,446h-.042a1.764,1.764,0,0,0,0,3.527h.042a1.764,1.764,0,1,0,0-3.527Z" transform="translate(-289.918 -375.454)" fill="#78b4f2"/>
          <path id="Path_12372" data-name="Path 12372" d="M41.764,206.631A1.764,1.764,0,0,0,40,208.395v.041a1.764,1.764,0,1,0,3.527,0v-.041A1.764,1.764,0,0,0,41.764,206.631Z" transform="translate(-32.945 -178.302)" fill="#78b4f2"/>
          <path id="Path_12373" data-name="Path 12373" d="M453.763,206.631A1.764,1.764,0,0,0,452,208.395v.041a1.764,1.764,0,1,0,3.527,0v-.041A1.764,1.764,0,0,0,453.763,206.631Z" transform="translate(-372.283 -178.302)" fill="#78b4f2"/>
        </g>
      </g>
    </g>
  </g>
</svg>
