<svg xmlns="http://www.w3.org/2000/svg" xmlns:xlink="http://www.w3.org/1999/xlink" width="100" height="100" viewBox="0 0 100 100">
  <defs>
    <clipPath id="clip-path">
      <rect id="Rectangle_2517" data-name="Rectangle 2517" width="100" height="100" transform="translate(21966 -14294)" fill="#fff" stroke="#707070" stroke-width="1"/>
    </clipPath>
  </defs>
  <g id="smoke_white" transform="translate(-21966 14294)" clip-path="url(#clip-path)">
    <g id="smoke-detector" transform="translate(21970.213 -14290.182)">
      <path id="Path_12352" data-name="Path 12352" d="M248.5,170.681v.806a1.353,1.353,0,1,0,2.706,0v-.806a1.353,1.353,0,1,0-2.706,0Z" transform="translate(-203.675 -138.782)" fill="#fff"/>
      <path id="Path_12353" data-name="Path 12353" d="M114.86,29.375a6.745,6.745,0,0,0,5.946-3.551l4.642-8.617H126.8a2.745,2.745,0,0,0,2.742-2.742V1.353A1.353,1.353,0,0,0,128.189,0H71.995a1.353,1.353,0,1,0,0,2.706h54.841v11.76a.036.036,0,0,1-.036.036H60.906a.036.036,0,0,1-.036-.036V2.706h5.715a1.353,1.353,0,0,0,0-2.706H59.517a1.353,1.353,0,0,0-1.353,1.353V14.465a2.745,2.745,0,0,0,2.742,2.742h1.353L66.9,25.824a6.745,6.745,0,0,0,5.946,3.551h1.278L78.6,35.216A6.976,6.976,0,0,0,84.1,37.935H96.175a1.353,1.353,0,1,0,0-2.706H84.1a4.253,4.253,0,0,1-3.357-1.657l-3.213-4.2h32.642l-3.213,4.2a4.253,4.253,0,0,1-3.357,1.657h-2.019a1.353,1.353,0,1,0,0,2.706H103.6a6.976,6.976,0,0,0,5.505-2.718l4.473-5.841Zm3.564-4.834a4.043,4.043,0,0,1-3.564,2.128h-4.333l5.1-9.462h6.75ZM101.7,26.669l4.122-9.462h6.725l-5.1,9.462Zm-12.752,0-4.121-9.462h18.043l-4.122,9.462Zm-8.7,0-5.1-9.462H81.88L86,26.669ZM69.282,24.541l-3.95-7.333h6.75l5.1,9.462H72.846A4.043,4.043,0,0,1,69.282,24.541Z" transform="translate(-47.672 0)" fill="#fff"/>
      <path id="Path_12354" data-name="Path 12354" d="M249.856,104.85A1.353,1.353,0,0,0,248.5,106.2v3.342a1.353,1.353,0,0,0,2.706,0V106.2A1.353,1.353,0,0,0,249.856,104.85Z" transform="translate(-203.675 -85.936)" fill="#fff"/>
      <path id="Path_12355" data-name="Path 12355" d="M116.435,42.9h48.137a1.353,1.353,0,1,0,0-2.706H116.435a1.353,1.353,0,0,0,0,2.706Z" transform="translate(-94.322 -32.943)" fill="#fff"/>
      <path id="Path_12356" data-name="Path 12356" d="M377.166,203.337a6.241,6.241,0,0,0-4.7,2.155c-.044-.029-.091-.053-.136-.081a9.165,9.165,0,0,0-17.89,3.986,10.994,10.994,0,0,0-.593,16.358,10.705,10.705,0,0,0-.471,3.133,10.849,10.849,0,0,0,7.249,10.238,9.058,9.058,0,0,0,8.516,11.951,8.938,8.938,0,0,0,3.138-.534,6.178,6.178,0,0,0,4.18,4.27,2.455,2.455,0,0,0,.713.107,2.424,2.424,0,0,0,1.449-.484,2.487,2.487,0,0,0,1-1.989V205.8a2.462,2.462,0,0,0-2.452-2.466ZM356.942,207.5a6.456,6.456,0,0,1,12.177-3,6.216,6.216,0,0,0-5.095,2.624,10.952,10.952,0,0,0-7.069.686C356.949,207.709,356.942,207.605,356.942,207.5Zm-3.756,10.342a8.313,8.313,0,0,1,9.774-8.174,6.208,6.208,0,0,0-.062,1.645,6.224,6.224,0,0,0-3.294,7.755,10.927,10.927,0,0,0-4.541,4.029A8.264,8.264,0,0,1,353.186,217.843Zm23.726,34.263a3.491,3.491,0,0,1-2.16-3.244c0-.084,0-.177.013-.284a1.354,1.354,0,0,0-2.089-1.241,6.322,6.322,0,0,1-3.472,1.033h-.048a6.352,6.352,0,0,1-5.483-9.476,1.353,1.353,0,0,0-.932-2,8.146,8.146,0,0,1-1.778-15.475,5.853,5.853,0,0,0,4.284,2.337l.065,0a1.353,1.353,0,0,0,.063-2.7,3.466,3.466,0,0,1-2.686-1.9,3.74,3.74,0,0,1-.738-2.18,3.525,3.525,0,0,1,2.787-3.438,1.353,1.353,0,0,0,1.01-1.74,3.484,3.484,0,0,1,.126-2.487c.009-.019.018-.039.027-.059a3.51,3.51,0,0,1,5.832-.848,1.353,1.353,0,0,0,2.245-.323,3.53,3.53,0,0,1,2.935-2.03v46.053Z" transform="translate(-287.256 -162.556)" fill="#fff"/>
      <path id="Path_12357" data-name="Path 12357" d="M456.855,143.735c.28.264.331.312.364.558s0,.3-.2.634a3.364,3.364,0,0,0-.568,2.4,1.353,1.353,0,0,0,2.681-.365c-.033-.245,0-.3.2-.634a3.431,3.431,0,0,0-.62-4.561c-.28-.264-.331-.312-.364-.558s0-.3.2-.634a3.363,3.363,0,0,0,.568-2.4,1.353,1.353,0,1,0-2.681.365c.033.245,0,.3-.2.634a3.431,3.431,0,0,0,.62,4.561Z" transform="translate(-373.438 -112.289)" fill="#fff"/>
      <path id="Path_12358" data-name="Path 12358" d="M301.2,276.815c-.312-.213-.348-.244-.409-.448s-.047-.249.1-.6a3.282,3.282,0,0,0,.183-2.4,1.353,1.353,0,0,0-2.592.778c.061.2.047.249-.1.6a3.352,3.352,0,0,0,1.291,4.3c.312.213.348.244.409.447s.047.249-.1.6a3.282,3.282,0,0,0-.183,2.4,1.353,1.353,0,1,0,2.592-.777c-.061-.2-.047-.249.1-.6a3.352,3.352,0,0,0-1.291-4.3Z" transform="translate(-244.288 -223.264)" fill="#fff"/>
      <path id="Path_12359" data-name="Path 12359" d="M248.238,232.543a1.974,1.974,0,0,1-.159-.17.311.311,0,0,1-.012-.069.413.413,0,0,1,0-.067h0a1.776,1.776,0,0,1,.122-.2,2.885,2.885,0,0,0,.543-2.022,1.353,1.353,0,0,0-2.692.277.46.46,0,0,1,0,.067,1.762,1.762,0,0,1-.122.2,2.934,2.934,0,0,0,.4,3.891,2,2,0,0,1,.159.17.316.316,0,0,1,.012.069.388.388,0,0,1,0,.067,1.758,1.758,0,0,1-.122.2,2.883,2.883,0,0,0-.542,2.022,1.353,1.353,0,0,0,2.691-.278.443.443,0,0,1,0-.067,1.747,1.747,0,0,1,.122-.2,2.934,2.934,0,0,0-.4-3.891Z" transform="translate(-201.097 -187.525)" fill="#fff"/>
      <path id="Path_12360" data-name="Path 12360" d="M29.344,146.962a1.353,1.353,0,1,0,2.681.365,3.365,3.365,0,0,0-.568-2.4c-.2-.33-.235-.389-.2-.634s.084-.293.364-.558a3.431,3.431,0,0,0,.62-4.561c-.2-.33-.235-.389-.2-.634a1.353,1.353,0,0,0-2.681-.365,3.364,3.364,0,0,0,.568,2.4c.2.33.235.389.2.634s-.084.293-.364.558a3.431,3.431,0,0,0-.62,4.561C29.342,146.658,29.378,146.717,29.344,146.962Z" transform="translate(-23.391 -112.289)" fill="#fff"/>
      <path id="Path_12361" data-name="Path 12361" d="M187.862,274.146a1.353,1.353,0,1,0-2.592-.777,3.281,3.281,0,0,0,.183,2.4c.143.35.156.395.1.6s-.1.234-.409.447a3.352,3.352,0,0,0-1.291,4.3c.143.35.157.4.1.6a1.353,1.353,0,1,0,2.592.777,3.283,3.283,0,0,0-.183-2.4c-.143-.35-.157-.395-.1-.6s.1-.234.409-.447a3.351,3.351,0,0,0,1.29-4.3c-.143-.349-.156-.395-.1-.6Z" transform="translate(-150.412 -223.264)" fill="#fff"/>
      <path id="Path_12362" data-name="Path 12362" d="M29.14,217.843a10.992,10.992,0,0,0-3.955-8.445,9.165,9.165,0,0,0-17.89-3.986c-.045.028-.092.052-.136.081a6.255,6.255,0,0,0-4.719-2.156A2.459,2.459,0,0,0,0,205.8v27.04a1.353,1.353,0,1,0,2.706,0V206.052a3.528,3.528,0,0,1,2.935,2.031,1.353,1.353,0,0,0,2.245.323,3.516,3.516,0,0,1,1.18-.88l.012-.005a3.512,3.512,0,0,1,4.64,1.734c.008.02.017.039.027.059a3.485,3.485,0,0,1,.126,2.488,1.353,1.353,0,0,0,1.009,1.74,3.525,3.525,0,0,1,2.787,3.438,3.9,3.9,0,0,1-.754,2.208,3.579,3.579,0,0,1-2.671,1.871,1.353,1.353,0,0,0,.063,2.7l.065,0a5.853,5.853,0,0,0,4.284-2.337A8.146,8.146,0,0,1,16.88,236.9a1.353,1.353,0,0,0-.933,2,6.352,6.352,0,0,1-5.482,9.476h-.048a6.323,6.323,0,0,1-3.472-1.033,1.353,1.353,0,0,0-2.089,1.239c.009.112.013.2.013.286a3.491,3.491,0,0,1-2.16,3.244V238.252a1.353,1.353,0,0,0-2.706,0v14.194a2.486,2.486,0,0,0,1,1.989,2.418,2.418,0,0,0,2.162.377,6.178,6.178,0,0,0,4.18-4.27,8.968,8.968,0,0,0,3.138.534A9.058,9.058,0,0,0,19,239.126a10.849,10.849,0,0,0,7.249-10.238,10.7,10.7,0,0,0-.471-3.133,10.959,10.959,0,0,0,3.361-7.912ZM10.5,204.5a6.456,6.456,0,0,1,12.176,3c0,.1-.007.209-.012.313a10.957,10.957,0,0,0-7.069-.686A6.217,6.217,0,0,0,10.5,204.5Zm9.513,14.565a6.223,6.223,0,0,0-3.294-7.755,6.2,6.2,0,0,0-.062-1.645,8.3,8.3,0,0,1,7.9,13.429A10.923,10.923,0,0,0,20.016,219.069Z" transform="translate(-0.002 -162.556)" fill="#fff"/>
    </g>
  </g>
</svg>
