<svg xmlns="http://www.w3.org/2000/svg" xmlns:xlink="http://www.w3.org/1999/xlink" width="100" height="100" viewBox="0 0 100 100">
  <defs>
    <clipPath id="clip-path">
      <rect id="Rectangle_2521" data-name="Rectangle 2521" width="100" height="100" transform="translate(21282 -14441)" fill="#fff" stroke="#707070" stroke-width="1"/>
    </clipPath>
  </defs>
  <g id="alarm_system" transform="translate(-21282 14441)" clip-path="url(#clip-path)">
    <g id="access-control" transform="translate(21286.662 -14436.338)">
      <path id="Path_12374" data-name="Path 12374" d="M211.7,229.3l-1.925-2.078a12.042,12.042,0,0,1,16.369,0l-1.925,2.078A9.209,9.209,0,0,0,211.7,229.3Zm0,0" transform="translate(-172.626 -184.337)" fill="#78b4f2"/>
      <path id="Path_12375" data-name="Path 12375" d="M70.839,79.34H85.007V76.507h-8.5V0H14.168V76.507h-8.5V79.34h27.46l1.417,2.834H0v2.834H35.961L36.5,86.09a8.25,8.25,0,0,0,7.418,4.584h21.96l4.25-5.667H90.675V82.174H70.84Zm-2.834,2.834v.945l-3.542,4.722H43.92a5.428,5.428,0,0,1-4.883-3.018l-6.1-12.2a2.527,2.527,0,0,1,4.421-2.441l3.832,6.324H43.92V50.3a2.125,2.125,0,0,1,4.25,0v17.71H51v-4.25h2.834a1.417,1.417,0,0,1,1.417,1.417v5.667h2.834v-4.25h2.834a1.417,1.417,0,0,1,1.417,1.417v5.667h2.834v-4.25h1.417a1.417,1.417,0,0,1,1.417,1.417ZM56.672,36.837v17H51V50.3a4.959,4.959,0,0,0-9.918,0v3.542H34v-17ZM36.837,34V28.336a8.5,8.5,0,1,1,17,0V34ZM66.589,66.589H64.93a4.259,4.259,0,0,0-4.008-2.834H57.846a4.259,4.259,0,0,0-4.008-2.834H51v-4.25h8.5V34H56.672V28.336a11.334,11.334,0,1,0-22.669,0V34H31.169V56.672h9.918v14.2l-1.306-2.155A5.361,5.361,0,0,0,30.4,73.89l1.309,2.617H22.669V48.171H19.835V76.507H17V2.834H73.673V76.507H70.839V70.839a4.251,4.251,0,0,0-4.25-4.25Zm0,0" fill="#78b4f2"/>
      <path id="Path_12376" data-name="Path 12376" d="M116.25,176a4.251,4.251,0,0,0-4.25,4.25v5.667a4.25,4.25,0,1,0,8.5,0V180.25A4.251,4.251,0,0,0,116.25,176Zm1.417,9.918a1.417,1.417,0,0,1-2.834,0V180.25a1.417,1.417,0,0,1,2.834,0Zm0,0" transform="translate(-92.165 -144.831)" fill="#78b4f2"/>
      <path id="Path_12377" data-name="Path 12377" d="M163,32H112V54.669h2.834V34.834h45.337V90.088H163Zm0,0" transform="translate(-92.165 -26.333)" fill="#78b4f2"/>
      <path id="Path_12378" data-name="Path 12378" d="M0,432H2.834v2.834H0Zm0,0" transform="translate(0 -355.493)" fill="#78b4f2"/>
      <path id="Path_12379" data-name="Path 12379" d="M496,432h2.834v2.834H496Zm0,0" transform="translate(-408.159 -355.493)" fill="#78b4f2"/>
    </g>
  </g>
</svg>
