<svg xmlns="http://www.w3.org/2000/svg" xmlns:xlink="http://www.w3.org/1999/xlink" width="100" height="100" viewBox="0 0 100 100">
  <defs>
    <clipPath id="clip-path">
      <rect id="Rectangle_2525" data-name="Rectangle 2525" width="100" height="100" transform="translate(21605 -14430)" fill="#fff" stroke="#707070" stroke-width="1"/>
    </clipPath>
  </defs>
  <g id="clipboard" transform="translate(-21605 14430)" clip-path="url(#clip-path)">
    <g id="clipboards" transform="translate(21610.902 -14427.65)">
      <g id="Group_5273" data-name="Group 5273" transform="translate(14.361 42.418)">
        <g id="Group_5272" data-name="Group 5272" transform="translate(0 0)">
          <rect id="Rectangle_2523" data-name="Rectangle 2523" width="42" height="4" transform="translate(-0.076 -0.412)" fill="#78b4f2"/>
        </g>
      </g>
      <g id="Group_5275" data-name="Group 5275" transform="translate(14.119 52.945)">
        <g id="Group_5274" data-name="Group 5274">
          <path id="Path_12388" data-name="Path 12388" d="M80.1,240v3.53h34.351l3.53-3.53Z" transform="translate(-80.102 -239.998)" fill="#78b4f2"/>
        </g>
      </g>
      <g id="Group_5277" data-name="Group 5277" transform="translate(14.119 63.534)">
        <g id="Group_5276" data-name="Group 5276">
          <path id="Path_12389" data-name="Path 12389" d="M80.1,288v3.53h23.762l3.53-3.53Z" transform="translate(-80.102 -287.998)" fill="#78b4f2"/>
        </g>
      </g>
      <g id="Group_5279" data-name="Group 5279" transform="translate(14.361 73.885)">
        <g id="Group_5278" data-name="Group 5278" transform="translate(0 0)">
          <rect id="Rectangle_2524" data-name="Rectangle 2524" width="17" height="4" transform="translate(-0.076 0.121)" fill="#78b4f2"/>
        </g>
      </g>
      <g id="Group_5281" data-name="Group 5281" transform="translate(0)">
        <g id="Group_5280" data-name="Group 5280">
          <path id="Path_12390" data-name="Path 12390" d="M103.265,37.747l-4.992-4.991a3.531,3.531,0,0,0-4.992,0L54.929,71.108V81.182c8.5,0,6.348,0,9.908-.015L83.166,62.838v25.4a3.53,3.53,0,0,1-3.53,3.53H23.162a3.53,3.53,0,0,1-3.53-3.53V24.707a3.53,3.53,0,0,1,3.53-3.53h7.06v7.06H72.577V21.178h7.059a3.53,3.53,0,0,1,3.53,3.53v13.11l3.53-3.554V24.707a7.059,7.059,0,0,0-7.059-7.059H71.967A10.609,10.609,0,0,0,64.92,11a4.858,4.858,0,0,1-3.343-3.343,10.593,10.593,0,0,0-20.355,0A4.865,4.865,0,0,1,37.872,11a10.611,10.611,0,0,0-7.047,6.646H23.161A7.059,7.059,0,0,0,16.1,24.707V88.242A7.059,7.059,0,0,0,23.161,95.3H79.636A7.059,7.059,0,0,0,86.7,88.242V59.309l16.57-16.57A3.531,3.531,0,0,0,103.265,37.747ZM33.751,21.121a7.1,7.1,0,0,1,5.1-6.728,8.375,8.375,0,0,0,5.764-5.761,7.063,7.063,0,0,1,13.571,0,8.366,8.366,0,0,0,5.76,5.76,7.09,7.09,0,0,1,5.1,6.786v3.53h-35.3ZM63.367,77.645c-.915.005-1.29.007-2.557.007L58.458,75.3V72.57l2.378-2.378,4.992,4.992Zm4.957-4.957L63.332,67.7,85.794,45.234l4.992,4.992ZM93.282,47.73,88.29,42.738l2.5-2.5,4.992,4.992Zm4.992-4.991-4.992-4.992,2.5-2.5,4.992,4.992Z" transform="translate(-16.102)" fill="#78b4f2"/>
        </g>
      </g>
      <g id="Group_5283" data-name="Group 5283" transform="translate(32.702 7.942)">
        <g id="Group_5282" data-name="Group 5282">
          <ellipse id="Ellipse_424" data-name="Ellipse 424" cx="2.647" cy="2.647" rx="2.647" ry="2.647" fill="#78b4f2"/>
        </g>
      </g>
    </g>
  </g>
</svg>
