<svg xmlns="http://www.w3.org/2000/svg" xmlns:xlink="http://www.w3.org/1999/xlink" width="100" height="100" viewBox="0 0 100 100">
  <defs>
    <clipPath id="clip-path">
      <rect id="Rectangle_2511" data-name="Rectangle 2511" width="100" height="100" transform="translate(21122 -14445)" fill="#fff" stroke="#707070" stroke-width="1"/>
    </clipPath>
  </defs>
  <g id="roller_shutter_white" transform="translate(-21122 14445)" clip-path="url(#clip-path)">
    <path id="roller-shutter-door" d="M18.9,29.974a2.7,2.7,0,0,1,2.7-2.7H68.4a2.7,2.7,0,0,1,0,5.4H21.6A2.7,2.7,0,0,1,18.9,29.974ZM21.6,62.9H68.4a2.7,2.7,0,0,0,0-5.4H21.6a2.7,2.7,0,1,0,0,5.4Zm0-20.279H68.4a2.7,2.7,0,0,0,0-5.4H21.6a2.7,2.7,0,0,0,0,5.4Zm0,10.33H68.4a2.7,2.7,0,0,0,0-5.4H21.6a2.7,2.7,0,0,0,0,5.4Zm60.3-33.4V70.625h5.4a2.7,2.7,0,0,1,0,5.4H2.7a2.7,2.7,0,0,1,0-5.4H8.1V19.55H2.7A2.7,2.7,0,0,1,0,16.85V8.075a2.7,2.7,0,0,1,2.7-2.7H87.3a2.7,2.7,0,0,1,2.7,2.7V16.85a2.7,2.7,0,0,1-2.7,2.7Zm-5.4,0h-63V70.625h63Z" transform="translate(21127 -14435.375)" fill="#fff"/>
  </g>
</svg>
